<svg width="43" height="42" viewBox="0 0 43 42" fill="none" xmlns="http://www.w3.org/2000/svg">
<path d="M21.375 11.7062C21.7028 7.92356 22.9725 4.14187 23.6635 2.3049C23.927 1.6051 24.6218 1.16312 25.3885 1.2644C27.5285 1.54709 32.0125 2.59034 36.0116 6.43188C40.0098 10.2743 41.0956 14.5827 41.3898 16.6388C41.4952 17.3755 41.0352 18.043 40.3069 18.2963C38.395 18.9611 34.4591 20.1802 30.5223 20.4951C30.5223 20.4951 29.608 17.8589 26.8634 15.2217C24.1187 12.5846 21.375 11.7062 21.375 11.7062Z" stroke="black" stroke-width="2.5" stroke-linecap="round" stroke-linejoin="round"/>
<path d="M13.7084 27.861L2.20843 38.9105M30.5415 20.4597C30.5415 20.4597 29.6292 17.8272 26.8903 15.1955C24.1495 12.563 21.4106 11.6864 21.4106 11.6864V11.6846C16.3889 11.9258 12.4731 12.4323 9.96422 12.8392C7.98813 13.1606 6.42893 14.563 5.86447 16.411C2.1078 28.7035 1.32293 36.2503 1.32293 36.2503C1.32293 36.2503 0.866759 37.5661 2.23622 38.882C3.60663 40.1987 4.97513 39.7595 4.97513 39.7595C4.97513 39.7595 12.8296 39.0044 25.6234 35.3958C27.5468 34.8526 29.0063 33.3563 29.3408 31.4567C29.7643 29.047 30.2905 25.2837 30.5415 20.4597Z" stroke="black" stroke-width="2.5" stroke-linecap="round" stroke-linejoin="round"/>
<path d="M12.75 25.0992C12.75 26.076 13.1539 27.0128 13.8728 27.7036C14.5916 28.3943 15.5667 28.7823 16.5833 28.7823C17.6 28.7823 18.575 28.3943 19.2939 27.7036C20.0128 27.0128 20.4167 26.076 20.4167 25.0992C20.4167 24.1223 20.0128 23.1855 19.2939 22.4948C18.575 21.8041 17.6 21.416 16.5833 21.416C15.5667 21.416 14.5916 21.8041 13.8728 22.4948C13.1539 23.1855 12.75 24.1223 12.75 25.0992Z" stroke="black" stroke-width="2.5" stroke-linecap="round" stroke-linejoin="round"/>
</svg>
