<svg width="48" height="38" viewBox="0 0 48 38" fill="none" xmlns="http://www.w3.org/2000/svg">
<path d="M15.1405 8.96865H6.05619V0H15.1405V8.96865ZM27.2528 8.96865H18.1686V0H27.2528V8.96865ZM24.2247 2.98955H21.1966V5.9791H24.2247V2.98955ZM39.3652 8.96865H30.2809V0H39.3652V8.96865ZM36.3371 2.98955H33.309V5.9791H36.3371V2.98955ZM33.309 20.9269C33.309 20.5065 33.3879 20.1172 33.5456 19.7591C33.7033 19.4009 33.9162 19.0895 34.1843 18.8248C34.4524 18.5601 34.7758 18.3421 35.1543 18.1709C35.5328 17.9996 35.9271 17.9217 36.3371 17.9373C36.7629 17.9373 37.1572 18.0152 37.52 18.1709C37.8827 18.3266 38.1981 18.5368 38.4662 18.8015C38.7344 19.0662 38.9552 19.3854 39.1286 19.7591C39.3021 20.1328 39.381 20.522 39.3652 20.9269C39.3652 21.3473 39.2863 21.7365 39.1286 22.0947C38.9709 22.4528 38.758 22.7642 38.4899 23.0289C38.2218 23.2936 37.8985 23.5116 37.52 23.6829C37.1414 23.8541 36.7472 23.932 36.3371 23.9164C35.9113 23.9164 35.517 23.8386 35.1543 23.6829C34.7915 23.5271 34.4761 23.3169 34.208 23.0522C33.9399 22.7875 33.7191 22.4683 33.5456 22.0947C33.3721 21.721 33.2932 21.3317 33.309 20.9269ZM6.05619 20.9269C6.05619 20.5065 6.13504 20.1172 6.29276 19.7591C6.45047 19.4009 6.66338 19.0895 6.93149 18.8248C7.19961 18.5601 7.52292 18.3421 7.90143 18.1709C8.27994 17.9996 8.67422 17.9217 9.08428 17.9373C9.5101 17.9373 9.90439 18.0152 10.2671 18.1709C10.6299 18.3266 10.9453 18.5368 11.2134 18.8015C11.4815 19.0662 11.7023 19.3854 11.8758 19.7591C12.0493 20.1328 12.1281 20.522 12.1124 20.9269C12.1124 21.3473 12.0335 21.7365 11.8758 22.0947C11.7181 22.4528 11.5052 22.7642 11.2371 23.0289C10.969 23.2936 10.6456 23.5116 10.2671 23.6829C9.88861 23.8541 9.49433 23.932 9.08428 23.9164C8.65845 23.9164 8.26417 23.8386 7.90143 23.6829C7.53869 23.5271 7.22326 23.3169 6.95515 23.0522C6.68704 22.7875 6.46624 22.4683 6.29276 22.0947C6.11927 21.721 6.04041 21.3317 6.05619 20.9269ZM15.1405 20.9269C15.1405 20.5065 15.2193 20.1172 15.377 19.7591C15.5347 19.4009 15.7477 19.0895 16.0158 18.8248C16.2839 18.5601 16.6072 18.3421 16.9857 18.1709C17.3642 17.9996 17.7585 17.9217 18.1686 17.9373C18.5944 17.9373 18.9887 18.0152 19.3514 18.1709C19.7141 18.3266 20.0296 18.5368 20.2977 18.8015C20.5658 19.0662 20.7866 19.3854 20.9601 19.7591C21.1336 20.1328 21.2124 20.522 21.1966 20.9269C21.1966 21.3473 21.1178 21.7365 20.9601 22.0947C20.8024 22.4528 20.5895 22.7642 20.3213 23.0289C20.0532 23.2936 19.7299 23.5116 19.3514 23.6829C18.9729 23.8541 18.5786 23.932 18.1686 23.9164C17.7427 23.9164 17.3484 23.8386 16.9857 23.6829C16.623 23.5271 16.3075 23.3169 16.0394 23.0522C15.7713 22.7875 15.5505 22.4683 15.377 22.0947C15.2035 21.721 15.1247 21.3317 15.1405 20.9269ZM30.2809 20.9269C30.2809 21.3473 30.2021 21.7365 30.0444 22.0947C29.8866 22.4528 29.6737 22.7642 29.4056 23.0289C29.1375 23.2936 28.8142 23.5116 28.4357 23.6829C28.0572 23.8541 27.6629 23.932 27.2528 23.9164C26.827 23.9164 26.4327 23.8386 26.07 23.6829C25.7072 23.5271 25.3918 23.3169 25.1237 23.0522C24.8556 22.7875 24.6348 22.4683 24.4613 22.0947C24.2878 21.721 24.209 21.3317 24.2247 20.9269C24.2247 20.5065 24.3036 20.1172 24.4613 19.7591C24.619 19.4009 24.8319 19.0895 25.1 18.8248C25.3682 18.5601 25.6915 18.3421 26.07 18.1709C26.4485 17.9996 26.8428 17.9217 27.2528 17.9373C27.6787 17.9373 28.0729 18.0152 28.4357 18.1709C28.7984 18.3266 29.1138 18.5368 29.382 18.8015C29.6501 19.0662 29.8709 19.3854 30.0444 19.7591C30.2178 20.1328 30.2967 20.522 30.2809 20.9269ZM3.02809 20.9269C3.02809 21.7521 3.18581 22.5228 3.50123 23.2391C3.81666 23.9553 4.25037 24.5937 4.80237 25.1543C5.35436 25.7148 5.9931 26.143 6.71858 26.4388C7.44406 26.7347 8.23263 26.8904 9.08428 26.906H24.2247V29.8955H9.08428C7.83834 29.8955 6.66338 29.662 5.55939 29.1948C4.4554 28.7277 3.49335 28.0815 2.67324 27.2563C1.85313 26.4311 1.20651 25.4813 0.733366 24.4069C0.260227 23.3325 0.0157713 22.1725 0 20.9269C0 19.6968 0.23657 18.5368 0.709709 17.4468C1.18285 16.3569 1.83736 15.4071 2.67324 14.5974C3.50912 13.7877 4.47117 13.1494 5.55939 12.6822C6.64761 12.2151 7.82257 11.9738 9.08428 11.9582H36.3371C37.4569 11.9582 38.5214 12.1528 39.5308 12.5421C40.5402 12.9314 41.4391 13.4608 42.2277 14.1303C43.0163 14.7998 43.6787 15.6017 44.2149 16.536C44.7511 17.4702 45.106 18.4823 45.2794 19.5722L42.0858 22.7253C42.1804 22.4294 42.2514 22.1336 42.2987 21.8377C42.346 21.5419 42.3775 21.2383 42.3933 20.9269C42.3933 20.1016 42.2356 19.3309 41.9202 18.6146C41.6047 17.8984 41.171 17.26 40.619 16.6994C40.067 16.1389 39.4283 15.7107 38.7028 15.4149C37.9773 15.119 37.1888 14.9633 36.3371 14.9478H9.08428C8.2484 14.9478 7.46772 15.1035 6.74224 15.4149C6.01676 15.7263 5.37013 16.1545 4.80237 16.6994C4.2346 17.2444 3.80089 17.875 3.50123 18.5913C3.20158 19.3075 3.04386 20.086 3.02809 20.9269ZM48 24.9674L34.8231 38L28.4593 31.6939L30.5885 29.5919L34.8231 33.7492L45.8709 22.8654L48 24.9674Z" fill="black"/>
</svg>
