<svg width="49" height="33" viewBox="0 0 49 33" fill="none" xmlns="http://www.w3.org/2000/svg">
<path d="M16.8055 31.2409H2.75625L6.39297 23.3252H16.2313L27.1797 0H15.4273L6.81406 18.435H12.0969C12.4797 18.9979 13.1305 19.3849 13.8961 19.3849C15.0445 19.3849 16.0016 18.5053 16.0016 17.4499C16.0016 16.3945 15.0445 15.5149 13.8961 15.5149C13.0539 15.5149 12.3266 15.9723 11.982 16.6407H9.45547L16.6141 1.75906H24.3086L15.0828 21.5309L5.35938 21.6013L0 33H18.0688L20.4422 28.2505H28.2898L30.893 33H49L32.6539 0L16.8055 31.2409ZM21.4375 26.3859L24.2703 20.7217L27.3328 26.3859H21.4375ZM32.0797 31.452L30.2805 28.145H35.8695C36.2523 28.7783 36.9414 29.2004 37.7453 29.2004C38.8937 29.2004 39.8508 28.3209 39.8508 27.2655C39.8508 26.21 38.8937 25.3305 37.7453 25.3305C36.9031 25.3305 36.1375 25.823 35.793 26.4915H29.4383L25.1891 18.822L28.3281 12.4893L31.85 19.1034H33.4961C33.8406 19.7367 34.568 20.2292 35.4102 20.2292C36.5586 20.2292 37.5156 19.3497 37.5156 18.2942C37.5156 17.2388 36.5586 16.3593 35.4102 16.3593C34.5297 16.3593 33.7641 16.8518 33.4578 17.5906H32.8453L29.2086 10.7655L32.6922 3.76439L46.3203 31.452H32.0797Z" fill="black"/>
</svg>
