<svg width="48" height="48" viewBox="0 0 48 48" fill="none" xmlns="http://www.w3.org/2000/svg">
<path d="M46.08 0H1.92C0.858 0 0 0.858 0 1.92V46.08C0 47.142 0.858 48 1.92 48H46.08C47.142 48 48 47.142 48 46.08V1.92C48 0.858 47.142 0 46.08 0ZM43.68 43.68H4.32V4.32H43.68V43.68ZM13.68 34.26V38.88C13.68 39.144 13.896 39.36 14.16 39.36H17.04C17.304 39.36 17.52 39.144 17.52 38.88V34.26C16.914 34.458 16.272 34.56 15.6 34.56C14.928 34.56 14.286 34.452 13.68 34.26ZM17.52 22.38V9.12C17.52 8.856 17.304 8.64 17.04 8.64H14.16C13.896 8.64 13.68 8.856 13.68 9.12V22.38C14.286 22.182 14.928 22.08 15.6 22.08C16.272 22.08 16.914 22.188 17.52 22.38ZM13.68 34.26C14.286 34.458 14.928 34.56 15.6 34.56C16.272 34.56 16.914 34.452 17.52 34.26C20.028 33.45 21.84 31.098 21.84 28.32C21.84 25.542 20.028 23.19 17.52 22.38C16.914 22.182 16.272 22.08 15.6 22.08C14.928 22.08 14.286 22.188 13.68 22.38C11.172 23.19 9.36 25.542 9.36 28.32C9.36 31.098 11.172 33.45 13.68 34.26ZM13.686 27.318C13.704 27.282 13.728 27.246 13.746 27.21V27.204L13.818 27.096C13.824 27.084 13.83 27.078 13.836 27.066C13.854 27.036 13.878 27.012 13.896 26.982L13.914 26.958C13.944 26.922 13.968 26.892 13.998 26.862L14.016 26.844L14.088 26.772L14.112 26.748C14.142 26.718 14.172 26.694 14.208 26.664C14.244 26.634 14.274 26.61 14.31 26.586C14.322 26.58 14.328 26.574 14.34 26.568C14.37 26.55 14.394 26.526 14.424 26.508L14.448 26.49C14.484 26.466 14.52 26.448 14.562 26.424L14.586 26.412C14.616 26.394 14.646 26.382 14.682 26.364L14.718 26.346C14.76 26.328 14.796 26.31 14.838 26.298C14.88 26.28 14.922 26.268 14.964 26.256C14.976 26.25 14.988 26.25 15 26.244C15.036 26.232 15.066 26.226 15.102 26.22C15.114 26.22 15.12 26.214 15.132 26.214C15.174 26.202 15.222 26.196 15.264 26.19C15.276 26.19 15.282 26.19 15.294 26.184C15.33 26.178 15.366 26.178 15.402 26.172H15.438C15.486 26.172 15.528 26.166 15.576 26.166C15.624 26.166 15.666 26.166 15.714 26.172H15.75C15.786 26.172 15.822 26.178 15.858 26.184C15.87 26.184 15.876 26.184 15.888 26.19C15.93 26.196 15.978 26.202 16.02 26.214C16.032 26.214 16.038 26.22 16.05 26.22C16.086 26.226 16.122 26.238 16.152 26.244C16.164 26.25 16.176 26.25 16.188 26.256C16.23 26.268 16.272 26.28 16.314 26.298C16.356 26.31 16.392 26.328 16.434 26.346L16.47 26.364C16.5 26.376 16.536 26.394 16.566 26.412L16.59 26.424C16.626 26.442 16.668 26.466 16.704 26.49L16.728 26.508C16.758 26.526 16.788 26.544 16.812 26.568C16.824 26.574 16.83 26.58 16.842 26.586C16.878 26.61 16.914 26.64 16.944 26.664C16.974 26.688 17.01 26.718 17.04 26.748L17.064 26.772L17.136 26.844L17.154 26.862C17.184 26.892 17.214 26.928 17.238 26.958L17.256 26.982C17.28 27.006 17.298 27.036 17.316 27.066C17.322 27.078 17.328 27.084 17.334 27.096L17.406 27.204L17.412 27.21C17.612 27.5457 17.7177 27.9292 17.718 28.32C17.718 28.68 17.628 29.022 17.472 29.322C17.454 29.358 17.43 29.394 17.412 29.43L17.406 29.436L17.334 29.544C17.328 29.556 17.322 29.562 17.316 29.574C17.298 29.604 17.274 29.628 17.256 29.658L17.238 29.682C17.208 29.718 17.184 29.748 17.154 29.778L17.136 29.796L17.064 29.868L17.04 29.892C17.01 29.922 16.98 29.946 16.944 29.976C16.908 30.006 16.878 30.03 16.842 30.054C16.83 30.06 16.824 30.066 16.812 30.072C16.782 30.09 16.758 30.114 16.728 30.132L16.704 30.15C16.668 30.174 16.632 30.192 16.59 30.216L16.566 30.228C16.536 30.246 16.506 30.258 16.47 30.276L16.434 30.294C16.392 30.312 16.356 30.33 16.314 30.342C16.272 30.36 16.23 30.372 16.188 30.384C16.176 30.39 16.164 30.39 16.152 30.396C16.116 30.408 16.086 30.414 16.05 30.42C16.038 30.42 16.032 30.426 16.02 30.426C15.978 30.438 15.93 30.444 15.888 30.45C15.876 30.45 15.87 30.45 15.858 30.456C15.822 30.462 15.786 30.462 15.75 30.468H15.714C15.666 30.468 15.624 30.474 15.576 30.474C15.528 30.474 15.486 30.474 15.438 30.468H15.402C15.366 30.468 15.33 30.462 15.294 30.456C15.282 30.456 15.276 30.456 15.264 30.45C15.222 30.444 15.174 30.438 15.132 30.426C15.12 30.426 15.114 30.42 15.102 30.42C15.066 30.414 15.03 30.402 15 30.396C14.988 30.39 14.976 30.39 14.964 30.384C14.922 30.372 14.88 30.36 14.838 30.342C14.796 30.33 14.76 30.312 14.718 30.294L14.682 30.276C14.652 30.264 14.616 30.246 14.586 30.228L14.562 30.216C14.526 30.198 14.484 30.174 14.448 30.15L14.424 30.132C14.394 30.114 14.364 30.096 14.34 30.072C14.328 30.066 14.322 30.06 14.31 30.054C14.274 30.03 14.238 30 14.208 29.976C14.178 29.952 14.142 29.922 14.112 29.892L14.088 29.868L14.016 29.796L13.998 29.778C13.968 29.748 13.938 29.712 13.914 29.682L13.896 29.658C13.872 29.634 13.854 29.604 13.836 29.574C13.83 29.562 13.824 29.556 13.818 29.544L13.746 29.436V29.43C13.722 29.394 13.704 29.358 13.686 29.322C13.53 29.022 13.44 28.68 13.44 28.32C13.44 27.96 13.53 27.618 13.686 27.318ZM30.48 25.62V38.88C30.48 39.144 30.696 39.36 30.96 39.36H33.84C34.104 39.36 34.32 39.144 34.32 38.88V25.62C33.714 25.818 33.072 25.92 32.4 25.92C31.728 25.92 31.086 25.812 30.48 25.62ZM34.32 13.74V9.12C34.32 8.856 34.104 8.64 33.84 8.64H30.96C30.696 8.64 30.48 8.856 30.48 9.12V13.74C31.086 13.542 31.728 13.44 32.4 13.44C33.072 13.44 33.714 13.548 34.32 13.74ZM30.48 25.62C31.086 25.818 31.728 25.92 32.4 25.92C33.072 25.92 33.714 25.812 34.32 25.62C36.828 24.81 38.64 22.458 38.64 19.68C38.64 16.902 36.828 14.55 34.32 13.74C33.714 13.542 33.072 13.44 32.4 13.44C31.728 13.44 31.086 13.548 30.48 13.74C27.972 14.55 26.16 16.902 26.16 19.68C26.16 22.458 27.972 24.81 30.48 25.62ZM30.486 18.678C30.504 18.642 30.528 18.606 30.546 18.57V18.564L30.618 18.456C30.624 18.444 30.63 18.438 30.636 18.426C30.654 18.396 30.678 18.372 30.696 18.342L30.714 18.318C30.744 18.282 30.768 18.252 30.798 18.222L30.816 18.204L30.888 18.132L30.912 18.108C30.942 18.078 30.972 18.054 31.008 18.024C31.044 17.994 31.074 17.97 31.11 17.946C31.122 17.94 31.128 17.934 31.14 17.928C31.17 17.91 31.194 17.886 31.224 17.868L31.248 17.85C31.284 17.826 31.32 17.808 31.362 17.784L31.386 17.772C31.416 17.754 31.446 17.742 31.482 17.724L31.518 17.706C31.56 17.688 31.596 17.67 31.638 17.658C31.68 17.64 31.722 17.628 31.764 17.616C31.776 17.61 31.788 17.61 31.8 17.604C31.836 17.592 31.866 17.586 31.902 17.58C31.914 17.58 31.92 17.574 31.932 17.574C31.974 17.562 32.022 17.556 32.064 17.55C32.076 17.55 32.082 17.55 32.094 17.544C32.13 17.538 32.166 17.538 32.202 17.532H32.238C32.286 17.532 32.328 17.526 32.376 17.526C32.424 17.526 32.466 17.526 32.514 17.532H32.55C32.586 17.532 32.622 17.538 32.658 17.544C32.67 17.544 32.676 17.544 32.688 17.55C32.73 17.556 32.778 17.562 32.82 17.574C32.832 17.574 32.838 17.58 32.85 17.58C32.886 17.586 32.922 17.598 32.952 17.604C32.964 17.61 32.976 17.61 32.988 17.616C33.03 17.628 33.072 17.64 33.114 17.658C33.156 17.67 33.192 17.688 33.234 17.706L33.27 17.724C33.3 17.736 33.336 17.754 33.366 17.772L33.39 17.784C33.426 17.802 33.468 17.826 33.504 17.85L33.528 17.868C33.558 17.886 33.588 17.904 33.612 17.928C33.624 17.934 33.63 17.94 33.642 17.946C33.678 17.97 33.714 18 33.744 18.024C33.774 18.048 33.81 18.078 33.84 18.108L33.864 18.132L33.936 18.204L33.954 18.222C33.984 18.252 34.014 18.288 34.038 18.318L34.056 18.342C34.08 18.366 34.098 18.396 34.116 18.426C34.122 18.438 34.128 18.444 34.134 18.456L34.206 18.564V18.57C34.406 18.9057 34.5117 19.2892 34.512 19.68C34.512 20.04 34.422 20.382 34.266 20.682C34.248 20.718 34.224 20.754 34.206 20.79V20.796L34.134 20.904C34.128 20.916 34.122 20.922 34.116 20.934C34.098 20.964 34.074 20.988 34.056 21.018L34.038 21.042C34.008 21.078 33.984 21.108 33.954 21.138L33.936 21.156L33.864 21.228L33.84 21.252C33.81 21.282 33.78 21.306 33.744 21.336C33.708 21.366 33.678 21.39 33.642 21.414C33.63 21.42 33.624 21.426 33.612 21.432C33.582 21.45 33.558 21.474 33.528 21.492L33.504 21.51C33.468 21.534 33.432 21.552 33.39 21.576L33.366 21.588C33.336 21.606 33.306 21.618 33.27 21.636L33.234 21.654C33.192 21.672 33.156 21.69 33.114 21.702C33.072 21.72 33.03 21.732 32.988 21.744C32.976 21.75 32.964 21.75 32.952 21.756C32.916 21.768 32.886 21.774 32.85 21.78C32.838 21.78 32.832 21.786 32.82 21.786C32.778 21.798 32.73 21.804 32.688 21.81C32.676 21.81 32.67 21.81 32.658 21.816C32.622 21.822 32.586 21.822 32.55 21.828H32.514C32.466 21.828 32.424 21.834 32.376 21.834C32.328 21.834 32.286 21.834 32.238 21.828H32.202C32.166 21.828 32.13 21.822 32.094 21.816C32.082 21.816 32.076 21.816 32.064 21.81C32.022 21.804 31.974 21.798 31.932 21.786C31.92 21.786 31.914 21.78 31.902 21.78C31.866 21.774 31.83 21.762 31.8 21.756C31.788 21.75 31.776 21.75 31.764 21.744C31.722 21.732 31.68 21.72 31.638 21.702C31.596 21.69 31.56 21.672 31.518 21.654L31.482 21.636C31.452 21.624 31.416 21.606 31.386 21.588L31.362 21.576C31.326 21.558 31.284 21.534 31.248 21.51L31.224 21.492C31.194 21.474 31.164 21.456 31.14 21.432C31.128 21.426 31.122 21.42 31.11 21.414C31.074 21.39 31.038 21.36 31.008 21.336C30.978 21.312 30.942 21.282 30.912 21.252L30.888 21.228L30.816 21.156L30.798 21.138C30.768 21.108 30.738 21.072 30.714 21.042L30.696 21.018C30.672 20.994 30.654 20.964 30.636 20.934C30.63 20.922 30.624 20.916 30.618 20.904L30.546 20.796V20.79C30.522 20.754 30.504 20.718 30.486 20.682C30.33 20.382 30.24 20.04 30.24 19.68C30.24 19.32 30.33 18.978 30.486 18.678Z" fill="black"/>
</svg>
