<svg width="50" height="50" viewBox="0 0 50 50" fill="none" xmlns="http://www.w3.org/2000/svg">
<path d="M6.25 12.5V37.5H27.75C27.308 36.1553 27.083 34.7488 27.0833 33.3333H14.5833C14.5833 32.2283 14.1443 31.1685 13.3629 30.3871C12.5815 29.6057 11.5217 29.1667 10.4167 29.1667V20.8333C12.7292 20.8333 14.5833 18.9792 14.5833 16.6667H35.4167C35.4167 17.7717 35.8557 18.8315 36.6371 19.6129C37.4185 20.3943 38.4783 20.8333 39.5833 20.8333V20.9583C40.9792 20.9583 42.375 21.2083 43.75 21.6667V12.5H6.25ZM25 18.75C21.4583 18.8125 18.75 21.4583 18.75 25C18.75 28.5417 21.4583 31.125 25 31.25C25.7917 31.25 26.6042 31.0833 27.375 30.7708C27.9375 28.4792 28.875 26.3125 31.1875 24.1875C30.9375 21.4167 28.3125 18.6875 25 18.75ZM39.5833 22.9167L44.2708 27.6042L39.5833 32.2917V29.1667C35.7292 29.1667 33.2083 33.25 34.9167 36.7083L32.6458 38.9792C28.9792 33.4375 32.9375 26.0417 39.5833 26.0417V22.9167ZM39.5833 45.8333L34.8958 41.1458L39.5833 36.4583V39.5833C43.4375 39.5833 45.9583 35.5 44.25 32.0417L46.5208 29.7708C50.1875 35.3125 46.2292 42.7083 39.5833 42.7083V45.8333Z" fill="white"/>
</svg>
