<svg width="52" height="52" viewBox="0 0 52 52" fill="none" xmlns="http://www.w3.org/2000/svg">
<path d="M23.833 45.5V41.1667H41.1663V25.7833C41.1663 21.5583 39.6952 17.9747 36.7528 15.0323C33.8105 12.09 30.2261 10.6181 25.9997 10.6167C21.7732 10.6152 18.1896 12.0871 15.2487 15.0323C12.3078 17.9776 10.8359 21.5612 10.833 25.7833V39H8.66634C7.47467 39 6.4549 38.5761 5.60701 37.7282C4.75912 36.8803 4.33445 35.8598 4.33301 34.6667V30.3333C4.33301 29.575 4.52295 28.8622 4.90284 28.1948C5.28273 27.5275 5.81501 26.9945 6.49967 26.5958L6.66217 23.725C6.95106 21.2694 7.66462 18.9944 8.80284 16.9C9.94106 14.8056 11.3675 12.9819 13.082 11.4292C14.7966 9.87639 16.7639 8.66667 18.984 7.8C21.2041 6.93333 23.5427 6.5 25.9997 6.5C28.4567 6.5 30.7858 6.93333 32.9872 7.8C35.1885 8.66667 37.1566 9.86772 38.8913 11.4032C40.6261 12.9386 42.0525 14.7528 43.1705 16.8458C44.2885 18.9388 45.0107 21.2138 45.3372 23.6708L45.4997 26.4875C46.1858 26.8125 46.7188 27.3 47.0987 27.95C47.4786 28.6 47.6678 29.2861 47.6663 30.0083V34.9917C47.6663 35.7139 47.4771 36.4 47.0987 37.05C46.7202 37.7 46.1872 38.1875 45.4997 38.5125V41.1667C45.4997 42.3583 45.0757 43.3788 44.2278 44.2282C43.38 45.0775 42.3595 45.5014 41.1663 45.5H23.833ZM19.4997 30.3333C18.8858 30.3333 18.3716 30.1253 17.957 29.7093C17.5425 29.2933 17.3345 28.7791 17.333 28.1667C17.3316 27.5542 17.5396 27.04 17.957 26.624C18.3745 26.208 18.8887 26 19.4997 26C20.1107 26 20.6256 26.208 21.0445 26.624C21.4634 27.04 21.6707 27.5542 21.6663 28.1667C21.662 28.7791 21.454 29.2941 21.0423 29.7115C20.6307 30.1289 20.1165 30.3362 19.4997 30.3333ZM32.4997 30.3333C31.8858 30.3333 31.3716 30.1253 30.957 29.7093C30.5425 29.2933 30.3345 28.7791 30.333 28.1667C30.3316 27.5542 30.5396 27.04 30.957 26.624C31.3745 26.208 31.8887 26 32.4997 26C33.1107 26 33.6256 26.208 34.0445 26.624C34.4634 27.04 34.6707 27.5542 34.6663 28.1667C34.662 28.7791 34.454 29.2941 34.0423 29.7115C33.6307 30.1289 33.1165 30.3362 32.4997 30.3333ZM13.0538 26.975C12.8011 23.1472 13.9566 19.8611 16.5205 17.1167C19.0844 14.3722 22.2802 13 26.108 13C29.3219 13 32.148 14.0198 34.5862 16.0593C37.0244 18.0989 38.4956 20.709 38.9997 23.8897C35.7136 23.8521 32.6896 22.9667 29.9278 21.2333C27.1661 19.5 25.0442 17.1528 23.5622 14.1917C22.9844 17.0806 21.766 19.6538 19.907 21.9115C18.048 24.1692 15.7636 25.857 13.0538 26.975Z" fill="white"/>
</svg>
