<svg width="46" height="46" viewBox="0 0 46 46" fill="none" xmlns="http://www.w3.org/2000/svg">
<path d="M10.2579 11.8676L11.4999 17.1576L10.2579 22.4246L14.8809 25.2766L17.7099 29.8996L22.9999 28.6576L28.2899 29.8996L31.1189 25.2766L35.7419 22.4246L34.4999 17.1576L35.7419 11.8676L31.1419 9.01558L28.2899 4.39258L22.9999 5.65758L17.7329 4.41558L14.8579 9.01558L10.2579 11.8676ZM23.0229 26.4496C20.5829 26.4496 18.2428 25.4803 16.5175 23.755C14.7922 22.0296 13.8229 19.6896 13.8229 17.2496C13.8229 14.8096 14.7922 12.4695 16.5175 10.7442C18.2428 9.01886 20.5829 8.04958 23.0229 8.04958C28.0829 8.04958 32.1999 12.1666 32.1999 17.2266C32.1999 22.3326 28.0829 26.4496 23.0229 26.4496ZM22.9769 24.1496C19.1589 24.1496 16.0999 21.0676 16.0999 17.2496C16.0999 13.4546 19.1589 10.3496 22.9769 10.3496C26.7949 10.3496 29.8999 13.4546 29.8999 17.2496C29.8999 21.0676 26.7949 24.1496 22.9769 24.1496ZM31.8089 26.6796L28.8649 31.8316L24.0809 30.7506L29.8999 44.1596L33.1199 39.0996H38.8699L31.8089 26.6796ZM14.0989 26.8406L16.9739 32.0156L21.8729 30.8426L16.0999 44.1596L12.8799 39.0996H7.12988L14.0989 26.8406Z" fill="white"/>
</svg>
