<svg width="46" height="46" viewBox="0 0 46 46" fill="none" xmlns="http://www.w3.org/2000/svg">
<path d="M40.25 40.25L28.75 28.75M5.75 19.1667C5.75 20.9286 6.09703 22.6732 6.77128 24.301C7.44553 25.9288 8.4338 27.4078 9.67965 28.6537C10.9255 29.8995 12.4045 30.8878 14.0323 31.5621C15.6601 32.2363 17.4048 32.5833 19.1667 32.5833C20.9286 32.5833 22.6732 32.2363 24.301 31.5621C25.9288 30.8878 27.4078 29.8995 28.6537 28.6537C29.8995 27.4078 30.8878 25.9288 31.5621 24.301C32.2363 22.6732 32.5833 20.9286 32.5833 19.1667C32.5833 17.4048 32.2363 15.6601 31.5621 14.0323C30.8878 12.4045 29.8995 10.9255 28.6537 9.67965C27.4078 8.4338 25.9288 7.44553 24.301 6.77128C22.6732 6.09703 20.9286 5.75 19.1667 5.75C17.4048 5.75 15.6601 6.09703 14.0323 6.77128C12.4045 7.44553 10.9255 8.4338 9.67965 9.67965C8.4338 10.9255 7.44553 12.4045 6.77128 14.0323C6.09703 15.6601 5.75 17.4048 5.75 19.1667Z" stroke="white" stroke-width="2" stroke-linecap="round" stroke-linejoin="round"/>
<path d="M22.9997 13.4167H18.208C17.4455 13.4167 16.7142 13.7196 16.1751 14.2587C15.6359 14.7979 15.333 15.5292 15.333 16.2917C15.333 17.0542 15.6359 17.7854 16.1751 18.3246C16.7142 18.8638 17.4455 19.1667 18.208 19.1667H20.1247C20.8872 19.1667 21.6184 19.4696 22.1576 20.0087C22.6968 20.5479 22.9997 21.2792 22.9997 22.0417C22.9997 22.8042 22.6968 23.5354 22.1576 24.0746C21.6184 24.6138 20.8872 24.9167 20.1247 24.9167H15.333M19.1663 24.9167V26.8333M19.1663 11.5V13.4167" stroke="white" stroke-width="2" stroke-linecap="round" stroke-linejoin="round"/>
</svg>
