<svg width="46" height="46" viewBox="0 0 46 46" fill="none" xmlns="http://www.w3.org/2000/svg">
<g clip-path="url(#clip0_446_3795)">
<path d="M40.889 7.66699H5.11122C4.43344 7.66699 3.78343 7.93624 3.30417 8.4155C2.82491 8.89476 2.55566 9.54477 2.55566 10.2225V35.7781C2.55566 36.4559 2.82491 37.1059 3.30417 37.5852C3.78343 38.0644 4.43344 38.3337 5.11122 38.3337H24.2779L25.0062 37.4392L26.1946 35.9825L26.0796 35.7781H5.11122V10.2225H40.889V21.1603C41.8599 21.7886 42.7229 22.5695 43.4446 23.4731V10.2225C43.4446 9.54477 43.1753 8.89476 42.696 8.4155C42.2168 7.93624 41.5668 7.66699 40.889 7.66699Z" fill="white"/>
<path d="M8.94434 15.333H30.6666V17.3775H8.94434V15.333Z" fill="white"/>
<path d="M8.94434 20.4443H22.9999V22.4888H8.94434V20.4443Z" fill="white"/>
<path d="M8.94434 29.3887H21.7221V31.4331H8.94434V29.3887Z" fill="white"/>
<path d="M35.0877 22.0159C33.4526 22.0029 31.8515 22.4835 30.4939 23.3948C29.1362 24.3062 28.085 25.6059 27.4777 27.1241C26.8704 28.6424 26.7353 30.3085 27.0899 31.9047C27.4445 33.501 28.2724 34.9532 29.4655 36.0714L26.9866 39.0998L28.1366 43.7125L32.8132 38.0137C34.2936 38.4514 35.869 38.4514 37.3493 38.0137L42.026 43.7125L43.176 39.0998L40.6971 36.0714C41.8901 34.9532 42.7181 33.501 43.0727 31.9047C43.4273 30.3085 43.2921 28.6424 42.6849 27.1241C42.0776 25.6059 41.0264 24.3062 39.6687 23.3948C38.3111 22.4835 36.71 22.0029 35.0749 22.0159H35.0877ZM35.0877 35.6625C34.0018 35.6474 32.9447 35.3116 32.0492 34.6974C31.1537 34.0831 30.4598 33.2178 30.0547 32.2103C29.6496 31.2027 29.5514 30.0979 29.7725 29.0347C29.9935 27.9715 30.524 26.9974 31.2972 26.2348C32.0703 25.4723 33.0517 24.9553 34.1178 24.749C35.184 24.5426 36.2873 24.6561 37.2892 25.0751C38.2911 25.494 39.1467 26.1999 39.7485 27.1038C40.3503 28.0077 40.6715 29.0694 40.6716 30.1553C40.6581 31.6251 40.063 33.0296 39.0165 34.0617C37.9701 35.0938 36.5575 35.6694 35.0877 35.6625Z" fill="white"/>
</g>
<defs>
<clipPath id="clip0_446_3795">
<rect width="46" height="46" fill="white"/>
</clipPath>
</defs>
</svg>
