<svg width="40" height="40" viewBox="0 0 40 40" fill="none" xmlns="http://www.w3.org/2000/svg">
<path d="M7.5 30H10V32.5H5V7.5H2.5V35H10V37.5H0V5H5V2.5H12.5C13.6458 2.5 14.7461 2.67578 15.8008 3.02734C16.8555 3.37891 17.8385 3.90625 18.75 4.60938C19.6484 3.90625 20.625 3.37891 21.6797 3.02734C22.7344 2.67578 23.8411 2.5 25 2.5H32.5V5H37.5V20.9961L35 19.8633V7.5H32.5V18.7305L30 17.5781V5H25C24.0755 5 23.1901 5.15625 22.3438 5.46875C21.4974 5.78125 20.7161 6.24349 20 6.85547V18.7305L17.5 19.8633V6.85547C16.7969 6.25651 16.0221 5.80078 15.1758 5.48828C14.3294 5.17578 13.4375 5.01302 12.5 5H7.5V30ZM35 34.9805L26.25 39.375L17.5 34.9805C17.5 34.5117 17.5065 34.0169 17.5195 33.4961C17.5326 32.9753 17.5846 32.4479 17.6758 31.9141C17.7669 31.3802 17.8971 30.8789 18.0664 30.4102C18.2357 29.9414 18.4701 29.5052 18.7695 29.1016L15 27.3828V38.75H12.5V26.25L26.25 20L40 26.25L33.7305 29.1016L33.8867 29.3164C34.1602 29.7201 34.3685 30.1562 34.5117 30.625C34.6549 31.0938 34.7656 31.569 34.8438 32.0508C34.9219 32.5326 34.9674 33.0273 34.9805 33.5352C34.9935 34.043 35 34.5247 35 34.9805ZM26.25 22.7344L18.5352 26.25L26.25 29.7656L33.9648 26.25L26.25 22.7344ZM26.25 36.582L32.5 33.4375C32.487 33.099 32.4609 32.793 32.4219 32.5195C32.3828 32.2461 32.3112 31.9792 32.207 31.7188C32.1029 31.4583 31.9987 31.2044 31.8945 30.957C31.7904 30.7096 31.6406 30.4362 31.4453 30.1367L26.25 32.5L21.0547 30.1367C20.8594 30.4492 20.7031 30.7292 20.5859 30.9766C20.4688 31.224 20.3646 31.4714 20.2734 31.7188C20.1823 31.9661 20.1237 32.2266 20.0977 32.5C20.0716 32.7734 20.0456 33.0924 20.0195 33.457L26.25 36.582Z" fill="white"/>
</svg>
